<?xml version="1.0" encoding="utf-8"?>
<!-- Generator: Adobe Illustrator 24.0.0, SVG Export Plug-In . SVG Version: 6.00 Build 0)  -->
<svg version="1.1" id="Capa_1" xmlns="http://www.w3.org/2000/svg" xmlns:xlink="http://www.w3.org/1999/xlink" x="0px" y="0px"
	 viewBox="0 0 512 512" style="enable-background:new 0 0 512 512;" xml:space="preserve">
<style type="text/css">
	.st0{fill:#736B75;}
	.st1{fill:#534956;}
	.st2{fill:#6F6571;}
	.st3{fill:#007BFF;}
	.st4{fill:#4B3F4E;}
	.st5{fill:#5D5360;}
</style>
<g>
	<path class="st0" d="M361.6,186.9h39.6c8.5,0,16.5-4.5,20.9-11.8l39.3-65.5c1.5-2.4,4.1-3.9,7-3.9h23.3c4.5,0,8.1-3.6,8.1-8.1
		s-3.6-8.1-8.1-8.1h-23.3c-8.5,0-16.5,4.5-20.9,11.8l-39.3,65.5c-1.5,2.4-4.1,3.9-7,3.9h-39.6c-4.5,0-8.1,3.6-8.1,8.1
		S357.2,186.9,361.6,186.9z"/>
	<path class="st0" d="M440.8,308.8h42.7c4.5,0,8.1-3.6,8.1-8.1s-3.6-8.1-8.1-8.1h-42.7c-1.9,0-3.8-0.7-5.3-2l-52.3-44.8
		c-3.4-2.9-8.5-2.5-11.5,0.9c-2.9,3.4-2.5,8.5,0.9,11.5l52.3,44.8C429.4,306.7,435,308.8,440.8,308.8L440.8,308.8z"/>
	<path class="st0" d="M467.3,487.6c1.8,0,3.7-0.6,5.2-1.9c3.4-2.9,3.9-8,1-11.5l-33-39.6c-4-4.8-6.5-10.6-7.3-16.8l-4.9-39
		c-1.5-12.2-11.9-21.4-24.2-21.4h-34.4c-4.5,0-8.1,3.6-8.1,8.1s3.6,8.1,8.1,8.1h34.4c4.1,0,7.6,3.1,8.1,7.1l4.9,39
		c1.2,9.3,4.9,18,10.9,25.2l33,39.6C462.7,486.6,465,487.6,467.3,487.6L467.3,487.6z"/>
</g>
<path class="st1" d="M239.8,77.2c-2.6,0-5.2-1.3-6.8-3.6l-40.6-61c-2.5-3.7-1.5-8.8,2.3-11.3c3.7-2.5,8.8-1.5,11.3,2.3l40.6,61
	c2.5,3.7,1.5,8.8-2.3,11.3C242.9,76.8,241.3,77.2,239.8,77.2L239.8,77.2z"/>
<path class="st1" d="M272.2,77.2c-1.5,0-3.1-0.4-4.5-1.4c-3.7-2.5-4.7-7.5-2.3-11.3l40.6-61c2.5-3.7,7.5-4.7,11.3-2.3
	c3.7,2.5,4.7,7.5,2.3,11.3l-40.6,61C277.5,75.9,274.9,77.2,272.2,77.2z"/>
<circle class="st2" cx="256" cy="105.7" r="48.8"/>
<path class="st3" d="M256,132.3c-71.8,0-113,95.2-113,95.2V382c0,71.8,41.2,125.5,113,125.5c32,0,61.3-7.1,84-26.2
	c28.2-23.9,46.1-59.5,46.1-99.3V227.6C386,227.6,327.8,132.3,256,132.3L256,132.3z"/>
<path class="st0" d="M150.4,186.9h-39.6c-8.5,0-16.5-4.5-20.9-11.8l-39.3-65.5c-1.5-2.4-4.1-3.9-7-3.9H20.3c-4.5,0-8.1-3.6-8.1-8.1
	s3.6-8.1,8.1-8.1h23.3c8.5,0,16.5,4.5,20.9,11.8l39.3,65.5c1.5,2.4,4.1,3.9,7,3.9h39.6c4.5,0,8.1,3.6,8.1,8.1
	S154.8,186.9,150.4,186.9z"/>
<path class="st0" d="M71.2,308.8H28.4c-4.5,0-8.1-3.6-8.1-8.1s3.6-8.1,8.1-8.1h42.7c1.9,0,3.8-0.7,5.3-2l52.3-44.8
	c3.4-2.9,8.5-2.5,11.5,0.9c2.9,3.4,2.5,8.5-0.9,11.5L87.1,303C82.6,306.7,77,308.8,71.2,308.8L71.2,308.8z"/>
<path class="st0" d="M44.7,487.6c-1.8,0-3.7-0.6-5.2-1.9c-3.4-2.9-3.9-8-1-11.5l33-39.6c4-4.8,6.5-10.6,7.3-16.8l4.9-39
	c1.5-12.2,11.9-21.4,24.2-21.4h34.4c4.5,0,8.1,3.6,8.1,8.1s-3.6,8.1-8.1,8.1h-34.4c-4.1,0-7.6,3.1-8.1,7.1l-4.9,39
	c-1.2,9.3-4.9,18-10.9,25.2l-33,39.6C49.3,486.6,47,487.6,44.7,487.6L44.7,487.6z"/>
<path class="st3" d="M280.4,495.7c-71.8,0-130-58.2-130-130V218.3l-24.4,9.2V382c0,69.1,53.9,125.6,121.9,129.8h16.3
	c28.8-1.8,55.1-13,75.8-30.5C322.1,490.5,301.8,495.7,280.4,495.7L280.4,495.7z"/>
<path class="st4" d="M247.3,187.8c-15.9,3.3-28.5,16.5-31.3,32.6c-3.3,19.2,7,36.5,22.8,44c5.6,2.6,9.1,8.4,9.1,14.5v232.8
	c2.7,0.2,5.4,0.3,8.1,0.3c2.7,0,5.4-0.1,8.1-0.3V278.9c0-6.3,3.6-11.9,9.2-14.6c13.8-6.5,23.3-20.5,23.3-36.7
	C296.6,202.3,273.5,182.4,247.3,187.8L247.3,187.8z"/>
<path class="st5" d="M256,97.5c-43.5,0-82,21.4-105.6,54.2l-8.9,66.3l8.9,9.6H386l0,0C386,155.7,327.8,97.5,256,97.5z"/>
<path class="st5" d="M150.4,227.6v-75.8C135.1,173,126,199.3,126,227.6H150.4L150.4,227.6z"/>
</svg>
